<svg xmlns="http://www.w3.org/2000/svg" width="512" height="512" viewBox="0 0 512 512" version="1.1"><path d="" stroke="none" fill="#FFF" fill-rule="evenodd"/><path d="M 165.385 30.558 C 163.122 31.393, 159.506 33.587, 157.349 35.433 C 151.573 40.377, 58.014 157.049, 54.500 163.689 C 51.930 168.546, 51.500 170.444, 51.500 176.929 C 51.500 183.184, 51.983 185.484, 54.280 190.161 C 55.809 193.274, 58.755 197.324, 60.827 199.161 C 62.900 200.997, 80.428 213.750, 99.780 227.500 C 120.673 242.346, 134.782 253.005, 134.516 253.744 C 134.269 254.428, 127.770 263.916, 120.072 274.828 C 112.375 285.739, 105.610 295.896, 105.039 297.399 C 102.262 304.702, 105.408 311.805, 113.945 317.500 C 117.242 319.700, 119.814 321.950, 119.659 322.500 C 119.129 324.385, 105.502 334.003, 98.500 337.435 C 83.021 345.021, 72.610 346.982, 47.750 346.992 L 30 347 29.996 328.750 C 29.993 312.303, 29.796 310.178, 28.005 307.241 C 22.116 297.582, 7.884 297.582, 1.995 307.241 C 0.055 310.422, 0.007 312.435, 0.007 391.500 C 0.007 470.565, 0.055 472.578, 1.995 475.759 C 7.884 485.418, 22.116 485.418, 28.005 475.759 C 29.785 472.840, 29.993 470.699, 29.996 455.250 L 30 438 43.826 438 C 89.739 438, 128.878 426.007, 162.897 401.512 C 171.011 395.671, 185.049 383.292, 190.155 377.477 C 191.834 375.565, 193.664 374, 194.222 374 C 194.781 374, 198.897 376.566, 203.369 379.702 C 210.464 384.677, 212.201 385.448, 217 385.757 C 221.201 386.027, 223.248 385.641, 225.666 384.121 C 227.653 382.872, 234.145 374.299, 243.094 361.105 L 257.356 340.079 263.928 344.757 C 267.543 347.330, 281.710 357.441, 295.411 367.226 C 309.112 377.010, 322.049 385.534, 324.161 386.166 C 330.125 387.953, 334.178 386.095, 347.379 375.518 C 353.912 370.283, 359.423 366, 359.624 366 C 359.825 366, 372.822 375.254, 388.505 386.565 C 404.188 397.875, 418.253 407.772, 419.760 408.558 C 423.993 410.766, 431.003 410.389, 434.758 407.750 C 437.940 405.514, 510.780 315.919, 511.241 313.674 C 511.374 313.028, 511.722 348.275, 512.016 392 L 512.550 471.500 512.525 388 C 512.501 309.078, 512.400 304.298, 510.667 300.816 C 509.245 297.957, 505.328 294.740, 493.167 286.446 C 484.550 280.568, 476.943 275.240, 476.263 274.606 C 475.300 273.710, 476.225 272.517, 480.427 269.235 C 490.029 261.736, 491.454 252.521, 484.184 244.940 C 480.339 240.929, 197.819 36.512, 190.065 32.129 C 184.477 28.971, 171.864 28.168, 165.385 30.558 M 131.500 115.059 C 107.300 145.274, 86.244 171.541, 84.708 173.429 L 81.916 176.863 204.521 264.444 C 312.206 341.366, 327.340 351.871, 328.884 350.762 C 329.850 350.068, 357.035 328.405, 389.294 302.622 L 447.948 255.745 444.224 253.051 C 313.194 158.263, 176.755 60.015, 176.216 60.061 C 175.822 60.095, 155.700 84.844, 131.500 115.059 M 368.241 227.995 C 361.285 232.236, 358.834 241.935, 362.995 248.759 C 370.926 261.767, 390.993 256.206, 390.993 241 C 390.993 229.364, 378.091 221.989, 368.241 227.995 M 151.413 283.734 C 146.511 290.692, 142.158 296.942, 141.740 297.621 C 141.218 298.471, 152.273 306.705, 177.144 323.990 C 206.845 344.631, 213.537 348.888, 214.595 347.811 C 215.303 347.090, 219.513 341.116, 223.950 334.536 C 231.586 323.213, 231.923 322.485, 230.259 320.926 C 228.683 319.450, 164.063 273.262, 161.413 271.717 C 160.785 271.351, 156.555 276.436, 151.413 283.734 M 417.711 319.309 C 400.290 333.164, 385.963 344.950, 385.873 345.500 C 385.736 346.346, 394.845 353.229, 419.257 370.725 L 423.756 373.949 448.449 343.371 C 462.030 326.554, 473.325 312.278, 473.550 311.647 C 473.866 310.756, 457.239 298.550, 450.612 294.809 C 449.867 294.388, 436.969 303.993, 417.711 319.309 M 0.477 391.500 C 0.477 436.600, 0.600 454.904, 0.750 432.175 C 0.900 409.447, 0.900 372.547, 0.750 350.175 C 0.600 327.804, 0.477 346.400, 0.477 391.500 M 140.486 345.616 C 131.427 353.750, 121.101 360.598, 109.743 366.006 C 91.010 374.925, 75.185 377.985, 47.750 377.994 L 30 378 30 392.500 L 30 407 45.250 406.980 C 75.578 406.942, 98.088 401.937, 122.409 389.825 C 138.506 381.809, 154.390 370.536, 164.662 359.835 L 168.824 355.500 157.648 347.871 L 146.473 340.242 140.486 345.616" stroke="none" fill="#FFF" fill-rule="evenodd"/></svg>