<?xml version="1.0" standalone="no"?>
<!DOCTYPE svg PUBLIC "-//W3C//DTD SVG 20010904//EN"
 "http://www.w3.org/TR/2001/REC-SVG-20010904/DTD/svg10.dtd">
<svg version="1.0" xmlns="http://www.w3.org/2000/svg"
 width="512.000000pt" height="512.000000pt" viewBox="0 0 512.000000 512.000000"
 preserveAspectRatio="xMidYMid meet">

<g transform="translate(0.000000,512.000000) scale(0.100000,-0.100000)"
fill="#fff" stroke="none">
<path d="M2476 5104 c-21 -7 -68 -36 -105 -62 -381 -280 -953 -452 -1636 -493
-103 -6 -200 -15 -214 -20 -50 -19 -94 -62 -118 -116 l-25 -53 5 -688 c4 -711
6 -750 52 -1012 165 -955 727 -1824 1530 -2366 140 -95 299 -188 422 -247 82
-39 94 -42 173 -42 83 0 89 2 195 53 319 155 616 366 894 637 156 152 201 205
201 241 0 59 -47 104 -110 104 -26 0 -52 -22 -183 -153 -222 -223 -445 -396
-707 -550 -131 -76 -259 -137 -290 -137 -81 0 -470 235 -718 435 -638 513
-1072 1255 -1211 2070 -42 250 -46 333 -46 995 l0 635 110 8 c61 4 180 14 266
22 588 55 1115 229 1496 491 51 35 99 64 107 64 7 0 33 -15 57 -33 174 -133
453 -269 738 -361 319 -102 634 -156 1069 -182 l113 -7 -4 -676 c-3 -558 -7
-696 -20 -791 -60 -418 -155 -732 -328 -1092 -78 -160 -81 -168 -69 -203 21
-62 96 -89 151 -53 25 16 116 191 187 358 91 215 180 510 221 735 54 290 54
297 58 1040 3 473 1 711 -6 735 -15 52 -74 116 -124 134 -26 10 -108 19 -222
26 -295 17 -493 45 -740 105 -331 79 -624 203 -860 364 -60 41 -126 80 -145
87 -46 17 -115 16 -164 -2z"/>
<path d="M2512 4100 c-13 -5 -51 -30 -85 -54 -212 -150 -549 -249 -922 -271
-130 -8 -163 -16 -198 -53 -55 -58 -57 -71 -57 -449 0 -191 5 -402 11 -468 42
-497 262 -981 608 -1338 145 -150 359 -309 550 -408 77 -41 89 -44 160 -44 70
0 83 3 161 44 545 280 960 810 1105 1412 52 216 57 279 62 707 3 222 2 424 -2
448 -8 54 -60 118 -108 133 -18 5 -81 12 -142 16 -374 22 -688 114 -922 272
-75 50 -92 57 -142 60 -31 1 -66 -2 -79 -7z m136 -239 c227 -154 576 -256 975
-287 l87 -6 0 -303 c0 -446 -19 -624 -91 -858 -32 -106 -108 -291 -141 -345
l-20 -32 -38 59 c-47 73 -102 129 -173 176 -54 36 -175 84 -212 85 -43 1 -48
14 -25 60 37 73 50 162 50 350 0 202 -13 281 -61 371 -41 76 -124 153 -209
193 -56 26 -79 31 -169 34 -217 9 -365 -76 -454 -258 l-32 -65 -3 -248 c-3
-262 3 -317 48 -393 l18 -32 -61 -12 c-165 -32 -306 -130 -395 -273 l-36 -59
-47 94 c-90 179 -150 371 -184 588 -13 79 -18 200 -22 486 l-5 382 93 7 c250
18 513 73 694 145 101 40 243 113 292 150 21 16 44 29 51 29 7 1 39 -16 70
-38z m32 -711 c49 -13 99 -52 132 -102 16 -22 28 -44 28 -48 0 -4 -23 -8 -50
-9 -61 -1 -139 -20 -243 -61 -76 -29 -143 -37 -194 -24 -29 8 -30 52 -4 109
21 48 101 121 145 134 42 13 143 13 186 1z m174 -477 c-1 -139 -17 -186 -84
-246 -55 -50 -103 -67 -186 -67 -76 0 -148 33 -195 89 -44 50 -59 98 -59 185
l0 66 89 0 c76 0 102 5 173 31 138 52 161 58 213 56 l50 -2 -1 -112z m-352
-654 l3 -141 33 -29 c41 -37 89 -39 129 -5 28 24 28 26 33 168 l5 143 145 -1
c168 0 220 -13 303 -75 56 -42 135 -151 157 -218 13 -40 13 -41 -28 -93 -111
-143 -282 -303 -434 -406 -93 -62 -229 -139 -259 -147 -18 -4 -54 12 -139 61
-213 123 -391 272 -537 447 -58 70 -72 93 -67 110 14 48 80 155 125 203 90 94
178 122 391 123 l136 1 4 -141z"/>
<path d="M2549 1607 c-45 -30 -58 -76 -36 -123 47 -97 187 -71 187 36 0 50
-22 85 -62 99 -43 15 -50 14 -89 -12z"/>
<path d="M3954 1361 c-65 -28 -83 -110 -35 -163 24 -27 36 -33 71 -33 35 0 47
6 71 33 20 22 29 43 29 67 0 65 -78 120 -136 96z"/>
</g>
</svg>
