<svg xmlns="http://www.w3.org/2000/svg" width="512" height="512" viewBox="0 0 512 512" version="1.1"><path d="" stroke="none" fill="#FFF" fill-rule="evenodd"/><path d="M 7.241 32.995 C -2.134 38.711, -2.453 52.723, 6.656 58.696 C 9.130 60.318, 12.834 60.550, 43.348 61 L 77.289 61.500 113.144 187 C 132.865 256.025, 149 313.244, 149 314.154 C 149 315.064, 147.168 319.625, 144.930 324.291 C 137.442 339.895, 137.304 352.137, 144.453 366.601 C 148.113 374.008, 155.937 382.365, 162.284 385.647 C 171.374 390.347, 175.526 390.997, 196.907 391.067 C 215.050 391.126, 217.024 391.285, 213.500 392.404 C 200.619 396.495, 190.838 404.948, 185.113 416.935 C 181.610 424.269, 181.500 424.851, 181.500 436 C 181.500 447.149, 181.610 447.731, 185.113 455.065 C 189.878 465.043, 196.957 472.122, 206.935 476.887 C 214.269 480.390, 214.851 480.500, 226 480.500 C 237.149 480.500, 237.731 480.390, 245.065 476.887 C 255.043 472.122, 262.122 465.043, 266.887 455.065 C 270.390 447.731, 270.500 447.149, 270.500 436 C 270.500 424.851, 270.390 424.269, 266.887 416.935 C 261.162 404.948, 251.381 396.495, 238.500 392.404 C 235.180 391.350, 245.894 391.134, 301.500 391.134 C 357.106 391.134, 367.820 391.350, 364.500 392.404 C 351.619 396.495, 341.838 404.948, 336.113 416.935 C 332.610 424.269, 332.500 424.851, 332.500 436 C 332.500 447.149, 332.610 447.731, 336.113 455.065 C 340.878 465.043, 347.957 472.122, 357.935 476.887 C 365.269 480.390, 365.851 480.500, 377 480.500 C 388.149 480.500, 388.731 480.390, 396.065 476.887 C 406.043 472.122, 413.122 465.043, 417.887 455.065 C 421.390 447.731, 421.500 447.149, 421.500 436 C 421.500 424.851, 421.390 424.269, 417.887 416.935 C 412.162 404.948, 402.381 396.495, 389.500 392.404 C 386.051 391.309, 389.360 391.124, 413.500 391.063 C 439.609 390.997, 441.720 390.858, 444.759 389.005 C 454.135 383.289, 454.453 369.275, 445.342 363.304 C 442.734 361.595, 435.689 361.474, 311.544 361 L 180.500 360.500 176.856 358.234 C 172.748 355.679, 170 350.765, 170 345.974 C 170 344.201, 171.186 340.106, 172.637 336.875 L 175.273 331 308.489 331 L 441.704 331 445.048 328.747 C 446.887 327.507, 449.158 325.145, 450.094 323.497 C 452.702 318.904, 512.001 110.072, 511.996 105.495 C 511.992 100.860, 509.274 95.881, 505.342 93.304 C 502.719 91.585, 493.470 91.476, 310.080 91 L 117.572 90.500 110.323 65.131 C 106.336 51.178, 102.358 38.669, 101.483 37.333 C 100.607 35.997, 98.453 34.028, 96.696 32.956 C 93.664 31.107, 91.374 31.007, 52 31.007 C 12.350 31.007, 10.355 31.096, 7.241 32.995 M 151.927 210.750 L 177.574 300.500 301.500 300.500 L 425.426 300.500 451.073 210.750 L 476.719 121 301.500 121 L 126.281 121 151.927 210.750 M 222.170 421.687 C 220.888 421.947, 218.146 423.854, 216.076 425.924 C 209.746 432.254, 209.725 439.725, 216.019 446.019 C 221.073 451.073, 225.656 451.882, 231.841 448.812 C 242.470 443.537, 243.449 430.111, 233.672 423.705 C 230.961 421.928, 225.606 420.989, 222.170 421.687 M 373.170 421.687 C 371.888 421.947, 369.146 423.854, 367.076 425.924 C 360.746 432.254, 360.725 439.725, 367.019 446.019 C 372.072 451.072, 376.659 451.883, 382.824 448.812 C 398.437 441.036, 390.311 418.204, 373.170 421.687" stroke="none" fill="#FFF" fill-rule="evenodd"/></svg>