<svg xmlns="http://www.w3.org/2000/svg" width="512" height="512" viewBox="0 0 512 512" version="1.1"><path d="" stroke="none" fill="#080404" fill-rule="evenodd"/><path d="M 411.344 89.991 C 409.058 90.471, 405.233 91.839, 402.844 93.031 C 399.801 94.549, 367.578 126.087, 295.259 198.329 L 192.018 301.460 152.759 262.287 C 108.714 218.339, 108.036 217.814, 95.117 217.645 C 83.281 217.490, 79.246 219.613, 65.150 233.411 C 50.443 247.807, 47.872 252.055, 47.238 263 C 46.890 269.025, 47.240 271.680, 49.020 276.500 C 51.140 282.243, 53.964 285.238, 114.867 346.323 C 152.676 384.245, 180.085 410.968, 182.406 412.173 C 187.662 414.901, 196.343 414.899, 201.594 412.169 C 203.967 410.936, 255.596 359.971, 333.139 282.319 C 456.914 158.369, 460.844 154.318, 462.986 148.500 C 464.759 143.687, 465.110 141.017, 464.762 135 C 464.128 124.055, 461.557 119.807, 446.850 105.411 C 436.776 95.550, 433.579 93.018, 429.500 91.670 C 422.956 89.508, 416.492 88.911, 411.344 89.991" stroke="none" fill="#040404" fill-rule="evenodd"/></svg>